<?xml version="1.0" encoding="UTF-8"?>
<svg id="Layer_1" data-name="Layer 1" xmlns="http://www.w3.org/2000/svg" xmlns:xlink="http://www.w3.org/1999/xlink" viewBox="0 0 50 46.71">
  <defs>
    <style>
      .cls-1 {
        fill: #88194c;
      }

      .cls-1, .cls-2, .cls-3, .cls-4, .cls-5, .cls-6, .cls-7, .cls-8, .cls-9 {
        stroke-width: 0px;
      }

      .cls-2 {
        fill: url(#linear-gradient);
      }

      .cls-3 {
        fill: #4b2d25;
      }

      .cls-4 {
        fill: #010101;
      }

      .cls-5 {
        fill: #3e2a2e;
      }

      .cls-6 {
        fill: #f36b21;
      }

      .cls-7 {
        fill: #f99b1c;
      }

      .cls-8 {
        fill: #fff;
      }

      .cls-9 {
        fill: #cc1e4e;
      }
    </style>
    <linearGradient id="linear-gradient" x1="20.89" y1="43.43" x2="20.89" y2="49.78" gradientTransform="translate(0 50.82) scale(1 -1)" gradientUnits="userSpaceOnUse">
      <stop offset="0" stop-color="#88194c"/>
      <stop offset="1" stop-color="#ef463f"/>
    </linearGradient>
  </defs>
  <path class="cls-1" d="M33.1,0c-2.57,2.69-6.65,6.18-11.26,6.18S13.15,2.7,10.58,0c-3.64,3.1-5.95,9.42-5.95,14.52,0,9.33,7.71,16.89,17.21,16.89s17.21-7.56,17.21-16.89c0-5.11-2.31-11.43-5.95-14.52Z"/>
  <path class="cls-1" d="M21.84,43.73c8.85,0,16.03-6.08,16.03-13.57s-7.18-13.57-16.03-13.57S5.81,22.66,5.81,30.15s7.18,13.57,16.03,13.57Z"/>
  <path class="cls-3" d="M0,46.71c14.35-1.34,28.76-2.04,43.18-2.07.05-.43.09-.86.14-1.29-1.76.35-3.59.38-5.36.1,1.91-.07,3.77-1.04,4.89-2.53-13.45,2.65-27.33,3.26-40.97,1.82-.54,1.11-1.34,2.86-1.88,3.97Z"/>
  <path class="cls-6" d="M16.56,42.72c0,.48-.26,1.18-.5,1.73-.2.47-.59.47-.8,0-.24-.55-.5-1.24-.5-1.73,0-.9.4-1.62.9-1.62.5,0,.9.73.9,1.62Z"/>
  <path class="cls-6" d="M18.53,42.72c0,.48-.26,1.18-.5,1.73-.2.47-.59.47-.8,0-.24-.55-.5-1.24-.5-1.73,0-.9.4-1.62.9-1.62.5,0,.9.73.9,1.62Z"/>
  <path class="cls-6" d="M20.5,42.72c0,.48-.26,1.18-.5,1.73-.2.47-.59.47-.8,0-.24-.55-.5-1.24-.5-1.73,0-.9.4-1.62.9-1.62.5,0,.9.73.9,1.62Z"/>
  <path class="cls-6" d="M24.99,42.72c0,.48-.26,1.18-.5,1.73-.2.47-.59.47-.8,0-.24-.55-.5-1.24-.5-1.73,0-.9.4-1.62.9-1.62.5,0,.9.73.9,1.62Z"/>
  <path class="cls-6" d="M26.96,42.72c0,.48-.26,1.18-.5,1.73-.2.47-.59.47-.8,0-.24-.55-.5-1.24-.5-1.73,0-.9.4-1.62.9-1.62.5,0,.9.73.9,1.62Z"/>
  <path class="cls-6" d="M28.93,42.72c0,.48-.26,1.18-.5,1.73-.2.47-.59.47-.8,0-.24-.55-.5-1.24-.5-1.73,0-.9.4-1.62.9-1.62.5,0,.9.73.9,1.62Z"/>
  <path class="cls-9" d="M33.76,33.21c-.73,0-1.4-.26-1.94-.7-.17-.14-.38.11-.25.29.53.67,1.31,1.09,2.18,1.09s1.66-.42,2.18-1.09c.14-.18-.08-.42-.25-.29-.53.44-1.2.7-1.93.7Z"/>
  <path class="cls-9" d="M27.8,33.21c-.73,0-1.4-.26-1.94-.7-.17-.14-.38.11-.25.29.53.67,1.31,1.09,2.18,1.09s1.66-.42,2.18-1.09c.14-.18-.08-.42-.25-.29-.54.44-1.21.7-1.93.7Z"/>
  <path class="cls-9" d="M21.84,33.21c-.73,0-1.4-.26-1.94-.7-.17-.14-.38.11-.25.29.53.67,1.31,1.09,2.18,1.09s1.66-.42,2.18-1.09c.14-.18-.08-.42-.25-.29-.53.44-1.2.7-1.93.7Z"/>
  <path class="cls-9" d="M9.92,33.21c-.73,0-1.4-.26-1.94-.7-.17-.14-.38.11-.25.29.53.67,1.31,1.09,2.18,1.09s1.66-.42,2.18-1.09c.14-.18-.08-.42-.25-.29-.54.44-1.2.7-1.93.7Z"/>
  <path class="cls-9" d="M15.88,33.21c-.73,0-1.4-.26-1.94-.7-.17-.14-.38.11-.25.29.53.67,1.31,1.09,2.18,1.09s1.66-.42,2.18-1.09c.14-.18-.08-.42-.25-.29-.53.44-1.2.7-1.93.7Z"/>
  <path class="cls-9" d="M27.8,39.89c-.73,0-1.4-.26-1.94-.7-.17-.14-.38.11-.25.29.53.67,1.31,1.09,2.18,1.09s1.66-.42,2.18-1.09c.14-.18-.08-.42-.25-.29-.54.44-1.21.7-1.93.7Z"/>
  <path class="cls-9" d="M21.84,39.89c-.73,0-1.4-.26-1.94-.7-.17-.14-.38.11-.25.29.53.67,1.31,1.1,2.19,1.1s1.66-.42,2.18-1.09c.14-.18-.08-.42-.25-.29-.54.43-1.21.69-1.94.69Z"/>
  <path class="cls-9" d="M15.88,39.89c-.73,0-1.4-.26-1.94-.7-.17-.14-.38.11-.25.29.53.67,1.31,1.09,2.18,1.09s1.66-.42,2.18-1.09c.14-.18-.08-.42-.25-.29-.53.44-1.2.7-1.93.7Z"/>
  <path class="cls-9" d="M30.7,36.55c-.73,0-1.4-.26-1.94-.7-.17-.14-.38.11-.25.29.53.67,1.31,1.09,2.18,1.09s1.66-.42,2.18-1.09c.14-.18-.08-.42-.25-.29-.54.44-1.21.7-1.93.7Z"/>
  <path class="cls-9" d="M24.74,36.55c-.73,0-1.4-.26-1.94-.7-.17-.14-.38.11-.25.29.53.67,1.31,1.09,2.18,1.09s1.66-.42,2.18-1.09c.14-.18-.08-.42-.25-.29-.53.44-1.2.7-1.93.7Z"/>
  <path class="cls-9" d="M18.78,36.55c-.73,0-1.4-.26-1.94-.7-.17-.14-.38.11-.25.29.53.67,1.31,1.09,2.18,1.09s1.66-.42,2.18-1.09c.14-.18-.08-.42-.25-.29-.53.44-1.2.7-1.93.7Z"/>
  <path class="cls-9" d="M12.82,36.55c-.73,0-1.4-.26-1.94-.7-.17-.14-.38.11-.25.29.53.67,1.31,1.09,2.18,1.09s1.66-.42,2.18-1.09c.14-.18-.08-.42-.25-.29-.53.44-1.21.7-1.93.7Z"/>
  <path class="cls-9" d="M15.7,26.63c.97,4.89-3.74,15.39-3.74,15.39,0,0-8.28-7.53-9.26-12.41-.97-4.89,1.15-9.52,4.74-10.34,3.59-.83,7.29,2.47,8.25,7.36Z"/>
  <path class="cls-9" d="M40.47,22.56c4.44,2.15,9.53,12.1,9.53,12.1,0,0-11.27,2.03-15.7-.12-4.44-2.15-6.65-6.57-4.95-9.88,1.7-3.31,6.68-4.25,11.12-2.11Z"/>
  <path class="cls-6" d="M26.79,23.48c0,3.16-4.95,9-4.95,9,0,0-4.95-5.83-4.95-9s2.21-5.73,4.95-5.73,4.95,2.57,4.95,5.73Z"/>
  <path class="cls-7" d="M13.22,30.02c5.37,0,9.72-4.68,9.72-10.46s-4.35-10.46-9.72-10.46S3.49,13.79,3.49,19.57s4.35,10.46,9.72,10.46Z"/>
  <path class="cls-8" d="M13.22,26.9c3.77,0,6.82-3.28,6.82-7.33s-3.05-7.33-6.82-7.33-6.82,3.28-6.82,7.33,3.05,7.33,6.82,7.33Z"/>
  <path class="cls-4" d="M13.22,23.06c1.79,0,3.25-1.57,3.25-3.5s-1.45-3.5-3.25-3.5-3.25,1.57-3.25,3.5,1.45,3.5,3.25,3.5Z"/>
  <path class="cls-8" d="M15.03,17.75c0-.43-.33-.78-.72-.78s-.72.35-.72.78.32.78.72.78.72-.34.72-.78Z"/>
  <path class="cls-7" d="M30.47,30.02c5.37,0,9.72-4.68,9.72-10.46s-4.35-10.46-9.72-10.46-9.72,4.68-9.72,10.46,4.35,10.46,9.72,10.46Z"/>
  <path class="cls-8" d="M30.47,26.9c3.77,0,6.82-3.28,6.82-7.33s-3.05-7.33-6.82-7.33-6.82,3.28-6.82,7.33,3.05,7.33,6.82,7.33Z"/>
  <path class="cls-4" d="M30.78,23.06c1.79,0,3.25-1.57,3.25-3.5s-1.45-3.5-3.25-3.5-3.25,1.57-3.25,3.5,1.45,3.5,3.25,3.5Z"/>
  <path class="cls-8" d="M32.59,17.75c0-.43-.33-.78-.73-.78s-.72.35-.72.78.32.78.72.78.73-.34.73-.78Z"/>
  <path class="cls-2" d="M22.94,4.45c.1-1.69,1.12-2.94,1.12-2.94-.87.24-1.6,1.07-2.16,2.02-.85-1.62-2.82-2.5-2.82-2.5,0,0,.85,1.49.94,3.01-.77-.96-2.32-1.36-2.32-1.36,0,0,1.79,1.73,1.35,4.07,0,0,.21.26.48.25.37.37,1.27.36,1.71.32.27.05.62.07,1.03.01,1.2-.18.56-1.21.66-2.9Z"/>
  <path class="cls-5" d="M31.74,30.67c-5.85,0-10.6-5.12-10.6-11.4s4.76-11.4,10.6-11.4,10.6,5.12,10.6,11.4-4.75,11.4-10.6,11.4ZM31.74,9.33c-5.1,0-9.25,4.47-9.25,9.95s4.15,9.95,9.25,9.95,9.25-4.47,9.25-9.95-4.15-9.95-9.25-9.95Z"/>
  <path class="cls-5" d="M11.89,30.67c-5.85,0-10.6-5.12-10.6-11.4S6.05,7.88,11.89,7.88s10.6,5.12,10.6,11.4-4.76,11.4-10.6,11.4ZM11.89,9.33c-5.1,0-9.25,4.47-9.25,9.95s4.15,9.95,9.25,9.95,9.25-4.47,9.25-9.95-4.15-9.95-9.25-9.95Z"/>
</svg>