<?xml version="1.0" encoding="UTF-8"?>
<svg id="Layer_1" data-name="Layer 1" xmlns="http://www.w3.org/2000/svg" xmlns:xlink="http://www.w3.org/1999/xlink" viewBox="0 0 200 110.29">
  <defs>
    <style>
      .cls-1 {
        fill: #88194c;
      }

      .cls-1, .cls-2, .cls-3, .cls-4, .cls-5, .cls-6, .cls-7, .cls-8, .cls-9, .cls-10 {
        stroke-width: 0px;
      }

      .cls-2 {
        fill: url(#linear-gradient);
      }

      .cls-3 {
        fill: #f7941d;
      }

      .cls-4 {
        fill: #4b2d25;
      }

      .cls-5 {
        fill: #010101;
      }

      .cls-6 {
        fill: #3e2a2e;
      }

      .cls-7 {
        fill: #f36b21;
      }

      .cls-8 {
        fill: #f99b1c;
      }

      .cls-9 {
        fill: #fff;
      }

      .cls-10 {
        fill: #cc1e4e;
      }
    </style>
    <linearGradient id="linear-gradient" x1="49.32" y1="95.34" x2="49.32" y2="110.34" gradientTransform="translate(0 112.78) scale(1 -1)" gradientUnits="userSpaceOnUse">
      <stop offset="0" stop-color="#88194c"/>
      <stop offset="1" stop-color="#ef463f"/>
    </linearGradient>
  </defs>
  <path class="cls-1" d="M78.16,0c-6.06,6.35-15.71,14.59-26.59,14.59S31.05,6.36,24.99,0c-8.6,7.32-14.05,22.24-14.05,34.29,0,22.03,18.19,39.89,40.62,39.89s40.64-17.86,40.64-39.89c0-12.05-5.44-26.98-14.05-34.29Z"/>
  <path class="cls-1" d="M51.57,103.25c20.9,0,37.84-14.35,37.84-32.05s-16.94-32.05-37.84-32.05S13.73,53.5,13.73,71.2s16.94,32.05,37.84,32.05Z"/>
  <path class="cls-4" d="M0,110.29c33.88-3.17,67.91-4.81,101.96-4.89.11-1.01.22-2.03.33-3.04-4.16.82-8.48.91-12.66.23,4.51-.17,8.89-2.45,11.55-5.98-31.77,6.25-64.53,7.7-96.74,4.3-1.29,2.62-3.16,6.76-4.44,9.38Z"/>
  <path class="cls-7" d="M39.1,100.86c0,1.14-.62,2.79-1.18,4.08-.48,1.1-1.4,1.1-1.88,0-.57-1.29-1.18-2.94-1.18-4.08,0-2.11.95-3.83,2.13-3.83,1.17.01,2.12,1.72,2.12,3.83Z"/>
  <path class="cls-7" d="M43.75,100.86c0,1.14-.62,2.79-1.18,4.08-.48,1.1-1.4,1.1-1.88,0-.57-1.29-1.18-2.94-1.18-4.08,0-2.11.95-3.83,2.13-3.83,1.17.01,2.12,1.72,2.12,3.83Z"/>
  <path class="cls-7" d="M48.4,100.86c0,1.14-.62,2.79-1.18,4.08-.48,1.1-1.4,1.1-1.88,0-.57-1.29-1.18-2.94-1.18-4.08,0-2.11.95-3.83,2.13-3.83,1.17.01,2.12,1.72,2.12,3.83Z"/>
  <path class="cls-7" d="M59,100.86c0,1.14-.62,2.79-1.18,4.08-.48,1.1-1.4,1.1-1.88,0-.57-1.29-1.18-2.94-1.18-4.08,0-2.11.95-3.83,2.12-3.83,1.17.01,2.13,1.72,2.13,3.83Z"/>
  <path class="cls-7" d="M63.65,100.86c0,1.14-.62,2.79-1.18,4.08-.48,1.1-1.4,1.1-1.88,0-.57-1.29-1.18-2.94-1.18-4.08,0-2.11.95-3.83,2.12-3.83,1.17.01,2.13,1.72,2.13,3.83Z"/>
  <path class="cls-7" d="M68.3,100.86c0,1.14-.62,2.79-1.18,4.08-.48,1.1-1.4,1.1-1.88,0-.57-1.29-1.18-2.94-1.18-4.08,0-2.11.95-3.83,2.12-3.83,1.17.01,2.13,1.72,2.13,3.83Z"/>
  <path class="cls-10" d="M79.72,78.42c-1.72,0-3.31-.62-4.58-1.65-.4-.32-.91.27-.59.67,1.24,1.58,3.09,2.58,5.16,2.58s3.93-1,5.16-2.58c.32-.42-.18-1-.59-.67-1.25,1.03-2.84,1.65-4.56,1.65Z"/>
  <path class="cls-10" d="M65.65,78.42c-1.72,0-3.31-.62-4.58-1.65-.4-.32-.91.27-.59.67,1.24,1.58,3.09,2.58,5.16,2.58s3.93-1,5.16-2.58c.32-.42-.18-1-.59-.67-1.26,1.03-2.85,1.65-4.56,1.65Z"/>
  <path class="cls-10" d="M51.57,78.42c-1.72,0-3.31-.62-4.58-1.65-.4-.32-.91.27-.59.67,1.24,1.58,3.09,2.58,5.16,2.58s3.93-1,5.16-2.58c.32-.42-.18-1-.59-.67-1.25,1.03-2.84,1.65-4.56,1.65Z"/>
  <path class="cls-10" d="M23.43,78.42c-1.72,0-3.31-.62-4.58-1.65-.4-.32-.91.27-.59.67,1.24,1.58,3.09,2.58,5.16,2.58s3.93-1,5.16-2.58c.32-.42-.18-1-.59-.67-1.26,1.03-2.84,1.65-4.56,1.65Z"/>
  <path class="cls-10" d="M37.5,78.42c-1.72,0-3.31-.62-4.58-1.65-.4-.32-.91.27-.59.67,1.24,1.58,3.09,2.58,5.16,2.58s3.93-1,5.16-2.58c.32-.42-.18-1-.59-.67-1.25,1.03-2.84,1.65-4.56,1.65Z"/>
  <path class="cls-10" d="M65.65,94.2c-1.72,0-3.31-.62-4.58-1.65-.4-.32-.91.27-.59.67,1.24,1.58,3.09,2.58,5.16,2.58s3.93-1,5.16-2.58c.32-.42-.18-1-.59-.67-1.26,1.03-2.85,1.65-4.56,1.65Z"/>
  <path class="cls-10" d="M51.57,94.2c-1.72,0-3.31-.62-4.58-1.65-.4-.32-.91.27-.59.67,1.25,1.59,3.1,2.59,5.17,2.59s3.93-1,5.16-2.58c.32-.42-.18-1-.59-.67-1.26,1.02-2.85,1.64-4.57,1.64Z"/>
  <path class="cls-10" d="M37.5,94.2c-1.72,0-3.31-.62-4.58-1.65-.4-.32-.91.27-.59.67,1.24,1.58,3.09,2.58,5.16,2.58s3.93-1,5.16-2.58c.32-.42-.18-1-.59-.67-1.25,1.03-2.84,1.65-4.56,1.65Z"/>
  <path class="cls-10" d="M72.5,86.31c-1.72,0-3.31-.62-4.58-1.65-.4-.33-.91.27-.59.67,1.24,1.58,3.09,2.58,5.16,2.58s3.93-1,5.16-2.58c.32-.42-.18-1-.59-.67-1.26,1.03-2.85,1.65-4.56,1.65Z"/>
  <path class="cls-10" d="M58.41,86.31c-1.72,0-3.31-.62-4.58-1.65-.4-.33-.91.27-.59.67,1.24,1.58,3.09,2.58,5.16,2.58s3.93-1,5.16-2.58c.32-.42-.18-1-.59-.67-1.25,1.03-2.84,1.65-4.56,1.65Z"/>
  <path class="cls-10" d="M44.34,86.31c-1.72,0-3.31-.62-4.58-1.65-.4-.33-.91.27-.59.67,1.24,1.58,3.09,2.58,5.16,2.58s3.93-1,5.16-2.58c.32-.42-.18-1-.59-.67-1.25,1.03-2.84,1.65-4.56,1.65Z"/>
  <path class="cls-10" d="M30.28,86.31c-1.72,0-3.31-.62-4.58-1.65-.4-.33-.91.27-.59.67,1.24,1.58,3.09,2.58,5.16,2.58s3.93-1,5.16-2.58c.32-.42-.18-1-.59-.67-1.26,1.03-2.85,1.65-4.56,1.65Z"/>
  <path class="cls-10" d="M37.08,62.89c2.29,11.54-8.83,36.35-8.83,36.35,0,0-19.56-17.77-21.86-29.31-2.29-11.54,2.72-22.47,11.2-24.41,8.48-1.95,17.21,5.83,19.49,17.37Z"/>
  <path class="cls-10" d="M95.55,53.27c10.47,5.07,22.51,28.58,22.51,28.58,0,0-26.6,4.8-37.08-.28-10.47-5.08-15.7-15.52-11.68-23.33,4.02-7.82,15.77-10.05,26.24-4.97Z"/>
  <path class="cls-7" d="M63.26,55.44c0,7.47-11.69,21.24-11.69,21.24,0,0-11.68-13.77-11.68-21.24s5.23-13.53,11.68-13.53,11.69,6.06,11.69,13.53Z"/>
  <path class="cls-8" d="M31.21,70.89c12.68,0,22.96-11.05,22.96-24.69s-10.28-24.69-22.96-24.69-22.96,11.05-22.96,24.69,10.28,24.69,22.96,24.69Z"/>
  <path class="cls-9" d="M31.21,63.51c8.89,0,16.1-7.75,16.1-17.32s-7.21-17.32-16.1-17.32-16.1,7.75-16.1,17.32,7.21,17.32,16.1,17.32Z"/>
  <path class="cls-5" d="M31.21,54.45c4.24,0,7.67-3.7,7.67-8.26s-3.43-8.26-7.67-8.26-7.67,3.7-7.67,8.26,3.43,8.26,7.67,8.26Z"/>
  <path class="cls-9" d="M35.49,41.91c0-1.01-.77-1.83-1.71-1.83s-1.71.82-1.71,1.83.76,1.83,1.71,1.83,1.71-.81,1.71-1.83Z"/>
  <path class="cls-8" d="M71.94,70.89c12.68,0,22.96-11.05,22.96-24.69s-10.28-24.69-22.96-24.69-22.96,11.05-22.96,24.69,10.28,24.69,22.96,24.69Z"/>
  <path class="cls-9" d="M71.94,63.51c8.89,0,16.1-7.75,16.1-17.32s-7.21-17.32-16.1-17.32-16.1,7.75-16.1,17.32,7.21,17.32,16.1,17.32Z"/>
  <path class="cls-5" d="M72.67,54.45c4.24,0,7.67-3.7,7.67-8.26s-3.43-8.26-7.67-8.26-7.67,3.7-7.67,8.26,3.44,8.26,7.67,8.26Z"/>
  <path class="cls-9" d="M76.95,41.91c0-1.01-.77-1.83-1.71-1.83s-1.71.82-1.71,1.83.76,1.83,1.71,1.83,1.71-.81,1.71-1.83Z"/>
  <path class="cls-2" d="M54.17,10.51c.23-3.99,2.65-6.93,2.65-6.93-2.06.56-3.77,2.52-5.1,4.77-2-3.83-6.65-5.91-6.65-5.91,0,0,2.01,3.51,2.23,7.12-1.83-2.26-5.47-3.21-5.47-3.21,0,0,4.24,4.08,3.18,9.62,0,0,.49.62,1.14.59.88.88,3.01.85,4.03.77.64.13,1.46.17,2.43.03,2.84-.43,1.32-2.86,1.55-6.85Z"/>
  <path class="cls-6" d="M74.94,72.42c-13.81,0-25.03-12.08-25.03-26.91s11.23-26.91,25.03-26.91,25.03,12.08,25.03,26.91-11.22,26.91-25.03,26.91ZM74.94,22.02c-12.05,0-21.85,10.54-21.85,23.49s9.8,23.49,21.85,23.49,21.85-10.54,21.85-23.49-9.8-23.49-21.85-23.49Z"/>
  <path class="cls-6" d="M28.07,72.42c-13.81,0-25.03-12.08-25.03-26.91s11.23-26.91,25.03-26.91,25.03,12.08,25.03,26.91-11.23,26.91-25.03,26.91ZM28.07,22.02c-12.05,0-21.85,10.54-21.85,23.49s9.8,23.49,21.85,23.49,21.85-10.54,21.85-23.49-9.8-23.49-21.85-23.49Z"/>
  <path class="cls-3" d="M130.09,85.88c.72,0,1.34-.1,1.86-.3.55-.2,1.02-.42,1.42-.67.4-.25.73-.47,1.01-.67.27-.2.52-.3.75-.3.57,0,.86.37.86,1.12,0,.17-.04.42-.11.75-.07.3-.17.62-.3.97-.12.32-.26.63-.41.93-.12.3-.25.52-.37.67-.12.12-.35.32-.67.6-.3.27-.71.55-1.23.82-.52.27-1.13.51-1.83.71-.7.22-1.47.34-2.31.34-.94,0-1.93-.14-2.95-.41-.99-.3-1.9-.8-2.72-1.49-.82-.72-1.5-1.68-2.05-2.87-.52-1.22-.78-2.73-.78-4.55,0-.65.04-1.38.11-2.2.1-.85.29-1.7.56-2.57.27-.89.63-1.76,1.08-2.61.47-.87,1.09-1.64,1.86-2.31s1.69-1.21,2.76-1.6c1.09-.42,2.39-.63,3.88-.63,1.22,0,2.26.15,3.13.45.89.27,1.63.66,2.2,1.16.57.47.99,1.03,1.27,1.68.3.65.45,1.34.45,2.09,0,1.34-.42,2.34-1.27,2.98-.85.62-2.04.93-3.58.93-.37,0-.63-.02-.78-.07-.12-.07-.19-.22-.19-.45,0-.6-.01-1.13-.04-1.6-.02-.47-.1-.87-.22-1.19-.1-.32-.26-.57-.48-.75s-.55-.26-.97-.26c-.77,0-1.39.25-1.86.75-.45.5-.8,1.11-1.04,1.83-.22.7-.37,1.42-.45,2.16-.05.75-.07,1.37-.07,1.86,0,1.76.27,2.99.82,3.69.57.7,1.47,1.04,2.68,1.04ZM146.75,73.13c0,.52-.05,1.26-.15,2.2-.07.94-.16,1.93-.26,2.95-.07,1.02-.16,1.98-.26,2.87-.07.89-.11,1.54-.11,1.94,0,.87.21,1.55.63,2.05.45.47,1.06.71,1.83.71.67,0,1.23-.26,1.68-.78.47-.55.85-1.24,1.12-2.09.3-.87.53-1.85.71-2.95s.3-2.2.37-3.32c.1-1.12.17-2.2.22-3.24.07-1.07.15-1.99.22-2.76.02-.2.1-.37.22-.52.12-.15.32-.22.6-.22h1.34c.77,0,1.39.09,1.86.26.5.15.88.37,1.16.67.3.3.5.67.6,1.12.12.42.19.92.19,1.49,0,.37-.02.91-.07,1.6-.02.67-.09,1.62-.19,2.83-.1,1.19-.22,2.72-.37,4.59-.12,1.84-.29,4.13-.48,6.86-.05.52-.11.83-.19.93-.05.1-.25.15-.6.15h-1.45c-.75,0-1.37-.09-1.86-.26-.47-.17-.86-.4-1.16-.67-.3-.27-.51-.6-.63-.97-.12-.37-.2-.76-.22-1.16-.37.65-.8,1.19-1.27,1.64-.45.45-.92.81-1.42,1.08-.5.25-1.01.42-1.53.52-.52.12-1.03.19-1.53.19-.94,0-1.79-.15-2.54-.45-.75-.32-1.38-.75-1.9-1.27-.5-.52-.88-1.14-1.16-1.86-.27-.72-.41-1.49-.41-2.31,0-.32.01-.85.04-1.57.05-.75.1-1.58.15-2.5.07-.92.15-1.89.22-2.91.07-1.04.14-2.03.19-2.95.07-.92.14-1.73.19-2.42.07-.7.12-1.19.15-1.49.05-.45.15-.75.3-.89.15-.17.4-.26.75-.26h1.19c.77,0,1.4.07,1.9.22s.88.36,1.16.63c.3.27.5.61.6,1.01.12.37.19.81.19,1.3ZM171.37,85.88c.72,0,1.34-.1,1.86-.3.55-.2,1.02-.42,1.42-.67.4-.25.73-.47,1.01-.67.27-.2.52-.3.75-.3.57,0,.86.37.86,1.12,0,.17-.04.42-.11.75-.07.3-.17.62-.3.97-.12.32-.26.63-.41.93-.12.3-.25.52-.37.67-.12.12-.35.32-.67.6-.3.27-.71.55-1.23.82s-1.13.51-1.83.71c-.7.22-1.47.34-2.31.34-.94,0-1.93-.14-2.95-.41-.99-.3-1.9-.8-2.72-1.49-.82-.72-1.5-1.68-2.05-2.87-.52-1.22-.78-2.73-.78-4.55,0-.65.04-1.38.11-2.2.1-.85.29-1.7.56-2.57.27-.89.63-1.76,1.08-2.61.47-.87,1.09-1.64,1.86-2.31.77-.67,1.69-1.21,2.76-1.6,1.09-.42,2.39-.63,3.88-.63,1.22,0,2.26.15,3.13.45.89.27,1.63.66,2.2,1.16.57.47.99,1.03,1.27,1.68.3.65.45,1.34.45,2.09,0,1.34-.42,2.34-1.27,2.98-.85.62-2.04.93-3.58.93-.37,0-.63-.02-.78-.07-.12-.07-.19-.22-.19-.45,0-.6-.01-1.13-.04-1.6-.02-.47-.1-.87-.22-1.19-.1-.32-.26-.57-.48-.75-.22-.17-.55-.26-.97-.26-.77,0-1.39.25-1.86.75-.45.5-.8,1.11-1.04,1.83-.22.7-.37,1.42-.45,2.16-.05.75-.07,1.37-.07,1.86,0,1.76.27,2.99.82,3.69.57.7,1.47,1.04,2.68,1.04ZM188.03,73.13c0,.52-.05,1.26-.15,2.2-.07.94-.16,1.93-.26,2.95-.07,1.02-.16,1.98-.26,2.87-.07.89-.11,1.54-.11,1.94,0,.87.21,1.55.63,2.05.45.47,1.06.71,1.83.71.67,0,1.23-.26,1.68-.78.47-.55.85-1.24,1.12-2.09.3-.87.53-1.85.71-2.95s.3-2.2.37-3.32c.1-1.12.17-2.2.22-3.24.07-1.07.15-1.99.22-2.76.02-.2.1-.37.22-.52.12-.15.32-.22.6-.22h1.34c.77,0,1.39.09,1.86.26.5.15.88.37,1.16.67.3.3.5.67.6,1.12.12.42.19.92.19,1.49,0,.37-.02.91-.07,1.6-.02.67-.09,1.62-.19,2.83-.1,1.19-.22,2.72-.37,4.59-.12,1.84-.29,4.13-.48,6.86-.05.52-.11.83-.19.93-.05.1-.25.15-.6.15h-1.45c-.75,0-1.37-.09-1.86-.26-.47-.17-.86-.4-1.16-.67-.3-.27-.51-.6-.63-.97-.12-.37-.2-.76-.22-1.16-.37.65-.8,1.19-1.27,1.64-.45.45-.92.81-1.42,1.08-.5.25-1.01.42-1.53.52-.52.12-1.03.19-1.53.19-.94,0-1.79-.15-2.54-.45-.75-.32-1.38-.75-1.9-1.27-.5-.52-.88-1.14-1.16-1.86-.27-.72-.41-1.49-.41-2.31,0-.32.01-.85.04-1.57.05-.75.1-1.58.15-2.5.07-.92.15-1.89.22-2.91.07-1.04.14-2.03.19-2.95.07-.92.14-1.73.19-2.42.07-.7.12-1.19.15-1.49.05-.45.15-.75.3-.89.15-.17.4-.26.75-.26h1.19c.77,0,1.4.07,1.9.22s.88.36,1.16.63c.3.27.5.61.6,1.01.12.37.19.81.19,1.3Z"/>
</svg>